<?xml version="1.0" encoding="UTF-8" standalone="no"?>
<!-- Created with Inkscape (http://www.inkscape.org/) -->

<svg
   xmlns:dc="http://purl.org/dc/elements/1.1/"
   xmlns:cc="http://creativecommons.org/ns#"
   xmlns:rdf="http://www.w3.org/1999/02/22-rdf-syntax-ns#"
   xmlns:svg="http://www.w3.org/2000/svg"
   xmlns="http://www.w3.org/2000/svg"
   xmlns:sodipodi="http://sodipodi.sourceforge.net/DTD/sodipodi-0.dtd"
   xmlns:inkscape="http://www.inkscape.org/namespaces/inkscape"
   width="100"
   height="100"
   viewBox="0 0 99.999997 100"
   id="svg2"
   version="1.1"
   inkscape:version="0.91 r13725"
   sodipodi:docname="facebook.svg"
   inkscape:export-filename="C:\Users\Matt\Documents\StudyBinder\LandingPage\StudyBinderLandingPage\www\img\facebook.png"
   inkscape:export-xdpi="90"
   inkscape:export-ydpi="90">
  <defs
     id="defs4" />
  <sodipodi:namedview
     id="base"
     pagecolor="#ffffff"
     bordercolor="#666666"
     borderopacity="1.0"
     inkscape:pageopacity="0.0"
     inkscape:pageshadow="2"
     inkscape:zoom="0.90509668"
     inkscape:cx="-24.17148"
     inkscape:cy="151.30068"
     inkscape:document-units="px"
     inkscape:current-layer="layer1"
     showgrid="false"
     units="px"
     inkscape:window-width="1536"
     inkscape:window-height="801"
     inkscape:window-x="-8"
     inkscape:window-y="-8"
     inkscape:window-maximized="1" />
  <metadata
     id="metadata7">
    <rdf:RDF>
      <cc:Work
         rdf:about="">
        <dc:format>image/svg+xml</dc:format>
        <dc:type
           rdf:resource="http://purl.org/dc/dcmitype/StillImage" />
        <dc:title></dc:title>
      </cc:Work>
    </rdf:RDF>
  </metadata>
  <g
     inkscape:label="Layer 1"
     inkscape:groupmode="layer"
     id="layer1"
     transform="translate(0,-952.36216)">
    <g
       id="g3368"
       transform="matrix(1.2195122,0,0,-1.2195271,49.998781,954.80121)"
       style="fill:#2c3e50;fill-opacity:1">
      <path
         d="m 0,0 c -21.504,0 -38.999,-17.495 -38.999,-39 0,-21.504 17.495,-38.999 38.999,-38.999 21.505,0 39.001,17.495 39.001,38.999 C 39.001,-17.495 21.505,0 0,0 m 0,-79.999 c -22.607,0 -40.999,18.392 -40.999,40.999 0,22.608 18.392,41 40.999,41 22.608,0 41.001,-18.392 41.001,-41 0,-22.607 -18.393,-40.999 -41.001,-40.999"
         style="fill:#2c3e50;fill-opacity:1;fill-rule:nonzero;stroke:none"
         id="path3370"
         inkscape:connector-curvature="0" />
    </g>
    <g
       id="g3372"
       transform="matrix(1.2195122,0,0,-1.2195271,39.409021,994.92821)"
       style="fill:#2c3e50;fill-opacity:1">
      <path
         d="m 0,0 3.721,0 0,3.616 c 0,1.596 0.04,4.056 1.198,5.579 1.221,1.614 2.897,2.71 5.778,2.71 4.696,0 6.672,-0.67 6.672,-0.67 l -0.93,-5.514 c 0,0 -1.551,0.449 -2.998,0.449 -1.448,0 -2.744,-0.519 -2.744,-1.965 l 0,-4.205 5.936,0 -0.414,-5.386 -5.522,0 0,-18.709 -6.976,0 0,18.709 L 0,-5.386 0,0 Z"
         style="fill:#2c3e50;fill-opacity:1;fill-rule:nonzero;stroke:none"
         id="path3374"
         inkscape:connector-curvature="0" />
    </g>
  </g>
</svg>
