<?xml version="1.0" encoding="UTF-8" standalone="no"?>
<!-- Created with Inkscape (http://www.inkscape.org/) -->

<svg
   xmlns:dc="http://purl.org/dc/elements/1.1/"
   xmlns:cc="http://creativecommons.org/ns#"
   xmlns:rdf="http://www.w3.org/1999/02/22-rdf-syntax-ns#"
   xmlns:svg="http://www.w3.org/2000/svg"
   xmlns="http://www.w3.org/2000/svg"
   xmlns:sodipodi="http://sodipodi.sourceforge.net/DTD/sodipodi-0.dtd"
   xmlns:inkscape="http://www.inkscape.org/namespaces/inkscape"
   width="100"
   height="100"
   viewBox="0 0 99.999997 100"
   id="svg2"
   version="1.1"
   inkscape:version="0.91 r13725"
   sodipodi:docname="facebook-hover.svg"
   inkscape:export-filename="C:\Users\Matt\Documents\StudyBinder\LandingPage\StudyBinderLandingPage\www\img\facebook.png"
   inkscape:export-xdpi="90"
   inkscape:export-ydpi="90">
  <defs
     id="defs4" />
  <sodipodi:namedview
     id="base"
     pagecolor="#ffffff"
     bordercolor="#666666"
     borderopacity="1.0"
     inkscape:pageopacity="0.0"
     inkscape:pageshadow="2"
     inkscape:zoom="3.6203867"
     inkscape:cx="20.200549"
     inkscape:cy="73.541329"
     inkscape:document-units="px"
     inkscape:current-layer="layer1"
     showgrid="false"
     units="px"
     inkscape:window-width="1536"
     inkscape:window-height="801"
     inkscape:window-x="-8"
     inkscape:window-y="-8"
     inkscape:window-maximized="1" />
  <metadata
     id="metadata7">
    <rdf:RDF>
      <cc:Work
         rdf:about="">
        <dc:format>image/svg+xml</dc:format>
        <dc:type
           rdf:resource="http://purl.org/dc/dcmitype/StillImage" />
        <dc:title></dc:title>
      </cc:Work>
    </rdf:RDF>
  </metadata>
  <g
     inkscape:label="Layer 1"
     inkscape:groupmode="layer"
     id="layer1"
     transform="translate(0,-952.36216)">
    <g
       id="g3368"
       transform="matrix(1.2195122,0,0,-1.2195271,49.998781,954.80121)"
       style="fill:#2c3e50;fill-opacity:1">
      <path
         d="m 0,0 c -21.504,0 -38.999,-17.495 -38.999,-39 0,-21.504 17.495,-38.999 38.999,-38.999 21.505,0 39.001,17.495 39.001,38.999 C 39.001,-17.495 21.505,0 0,0 m 0,-79.999 c -22.607,0 -40.999,18.392 -40.999,40.999 0,22.608 18.392,41 40.999,41 22.608,0 41.001,-18.392 41.001,-41 0,-22.607 -18.393,-40.999 -41.001,-40.999"
         style="fill:#1abc9c;fill-opacity:1;fill-rule:nonzero;stroke:none"
         id="path3370"
         inkscape:connector-curvature="0" />
    </g>
    <g
       id="g3372"
       transform="matrix(1.2195122,0,0,-1.2195271,39.409021,994.92821)"
       style="fill:#2c3e50;fill-opacity:1">
      <path
         d="m 0,0 3.721,0 0,3.616 c 0,1.596 0.04,4.056 1.198,5.579 1.221,1.614 2.897,2.71 5.778,2.71 4.696,0 6.672,-0.67 6.672,-0.67 l -0.93,-5.514 c 0,0 -1.551,0.449 -2.998,0.449 -1.448,0 -2.744,-0.519 -2.744,-1.965 l 0,-4.205 5.936,0 -0.414,-5.386 -5.522,0 0,-18.709 -6.976,0 0,18.709 L 0,-5.386 0,0 Z"
         style="fill:#1abc9c;fill-opacity:1;fill-rule:nonzero;stroke:none"
         id="path3374"
         inkscape:connector-curvature="0" />
    </g>
    <path
       style="fill:#2c3e50;fill-opacity:1"
       d="M 46.496083,97.261154 C 29.80612,96.12179 14.62477,85.751235 7.3018429,70.487117 -2.7259251,49.584952 3.7250225,24.827186 22.741714,11.231214 25.751617,9.0792862 31.48515,6.1644449 34.958525,5.0203733 53.935611,-1.2303602 74.604205,4.9084521 87.051052,20.492457 c 7.479908,9.36518 11.194436,21.422502 10.190359,33.07782 -0.58783,6.823542 -1.946508,11.702237 -4.903518,17.607374 -6.517922,13.016278 -18.638724,22.347449 -32.818157,25.26498 -2.38279,0.490279 -3.66452,0.630229 -8.604236,0.93948 -0.759587,0.04755 -2.748325,-0.0069 -4.419417,-0.120957 z m 6.148815,-36.648673 0.07212,-11.393811 3.286701,0 3.286704,0 0.180533,-2.416868 c 0.09929,-1.329278 0.203672,-2.851906 0.231956,-3.383617 l 0.05142,-0.966747 -3.521723,-0.07731 -3.521723,-0.0773 0,-2.891992 c 0,-2.496048 0.07352,-2.965512 0.53702,-3.42901 0.75564,-0.75564 2.257377,-0.966137 4.381534,-0.614152 1.002694,0.166153 1.851827,0.273346 1.886962,0.238212 0.140474,-0.140471 1.183169,-6.658385 1.081445,-6.760111 -0.329852,-0.32985 -2.64293,-0.646584 -5.818961,-0.796801 -2.898249,-0.137078 -3.897722,-0.08182 -5.160653,0.285326 -2.182778,0.63455 -3.771379,1.93011 -4.776565,3.895455 -0.798948,1.562107 -0.835361,1.791071 -0.929831,5.846975 l -0.09832,4.221206 -2.249495,0.07975 -2.249494,0.07975 -0.07756,3.383616 -0.07755,3.383616 2.356317,0 2.356318,0 0,11.469877 0,11.46988 4.350364,-0.07607 4.350364,-0.07607 0.07212,-11.39381 z"
       id="path4152"
       inkscape:connector-curvature="0"
       transform="translate(0,952.36216)" />
    <path
       style="fill:#ecf0f1;fill-opacity:0"
       d="M 44.700695,96.97013 C 27.562144,95.000841 12.63003,83.59631 6.2287822,67.586874 4.1003597,62.263719 3.1044926,57.707068 2.8180373,51.980806 2.4224188,44.072364 4.0805314,36.442176 7.8300285,28.916972 14.309772,15.91219 26.243304,6.7577693 40.833704,3.5992748 c 2.533467,-0.5484386 3.686192,-0.6278376 9.115049,-0.6278376 5.428856,0 6.581581,0.079399 9.115048,0.6278376 8.424324,1.8236774 15.958699,5.5668662 22.208037,11.0332822 7.463354,6.52834 12.937189,16.024237 15.080651,26.161599 0.765697,3.621315 1.025473,10.329905 0.56239,14.523424 -1.448859,13.120311 -8.673504,25.331805 -19.639835,33.196338 -4.756735,3.411304 -12.008162,6.599038 -17.658816,7.762831 -4.454071,0.917346 -10.51449,1.199079 -14.915533,0.693381 z m 8.010194,-36.301785 0,-11.449675 3.302047,0 3.302045,0 0.138585,-0.897694 c 0.07622,-0.493731 0.215182,-2.043652 0.308807,-3.444267 l 0.170228,-2.546573 -3.541804,-0.07746 -3.541802,-0.07746 0.06045,-2.881778 c 0.0791,-3.770707 0.06355,-3.755507 3.805555,-3.720318 2.021058,0.019 2.912587,-0.07255 3.003088,-0.30839 0.353672,-0.921658 1.02886,-6.294277 0.817568,-6.50557 -0.807119,-0.807118 -9.384614,-1.090959 -11.472244,-0.379632 -1.834191,0.624972 -3.475253,2.158931 -4.399309,4.112189 -0.697429,1.474213 -0.791927,1.985512 -0.794233,4.297334 -0.0014,1.443216 -0.081,3.276584 -0.176799,4.07415 l -0.17418,1.450122 -2.15545,0 -2.155446,0 -0.08484,3.453172 -0.08484,3.453173 2.416869,-5.53e-4 2.416869,-5.52e-4 -2.76e-4,11.531917 -2.77e-4,11.531918 4.419802,-0.08224 4.419798,-0.08224 0,-11.449677 -2.12e-4,9.9e-5 z"
       id="path4154"
       inkscape:connector-curvature="0"
       transform="translate(0,952.36216)" />
  </g>
</svg>
