<?xml version="1.0" encoding="UTF-8" standalone="no"?>
<!-- Created with Inkscape (http://www.inkscape.org/) -->

<svg
   xmlns:dc="http://purl.org/dc/elements/1.1/"
   xmlns:cc="http://creativecommons.org/ns#"
   xmlns:rdf="http://www.w3.org/1999/02/22-rdf-syntax-ns#"
   xmlns:svg="http://www.w3.org/2000/svg"
   xmlns="http://www.w3.org/2000/svg"
   xmlns:sodipodi="http://sodipodi.sourceforge.net/DTD/sodipodi-0.dtd"
   xmlns:inkscape="http://www.inkscape.org/namespaces/inkscape"
   width="100"
   height="100"
   viewBox="0 0 100 100"
   id="svg2"
   version="1.1"
   inkscape:version="0.91 r13725"
   sodipodi:docname="instagram.svg"
   inkscape:export-filename="C:\Users\Matt\Documents\StudyBinder\LandingPage\StudyBinderLandingPage\www\img\instagram.png"
   inkscape:export-xdpi="90"
   inkscape:export-ydpi="90">
  <defs
     id="defs4" />
  <sodipodi:namedview
     id="base"
     pagecolor="#ffffff"
     bordercolor="#666666"
     borderopacity="1.0"
     inkscape:pageopacity="0.0"
     inkscape:pageshadow="2"
     inkscape:zoom="1.979899"
     inkscape:cx="20.89937"
     inkscape:cy="89.381391"
     inkscape:document-units="px"
     inkscape:current-layer="layer1"
     showgrid="false"
     units="px"
     inkscape:window-width="1536"
     inkscape:window-height="801"
     inkscape:window-x="-8"
     inkscape:window-y="-8"
     inkscape:window-maximized="1" />
  <metadata
     id="metadata7">
    <rdf:RDF>
      <cc:Work
         rdf:about="">
        <dc:format>image/svg+xml</dc:format>
        <dc:type
           rdf:resource="http://purl.org/dc/dcmitype/StillImage" />
        <dc:title></dc:title>
      </cc:Work>
    </rdf:RDF>
  </metadata>
  <g
     inkscape:label="Layer 1"
     inkscape:groupmode="layer"
     id="layer1"
     transform="translate(0,-952.36216)">
    <g
       id="g3482"
       transform="matrix(1.2195122,0,0,-1.2195122,50,954.80118)"
       style="fill:#2c3e50;fill-opacity:1">
      <path
         d="m 0,0 c -21.505,0 -39,-17.495 -39,-39 0,-21.505 17.495,-39 39,-39 21.505,0 39,17.495 39,39 C 39,-17.495 21.505,0 0,0 m 0,-80 c -22.608,0 -41,18.393 -41,41 0,22.607 18.392,41 41,41 22.607,0 41,-18.393 41,-41 0,-22.607 -18.393,-41 -41,-41"
         style="fill:#2c3e50;fill-opacity:1;fill-rule:nonzero;stroke:none"
         id="path3484"
         inkscape:connector-curvature="0" />
    </g>
    <g
       id="g3486"
       transform="matrix(1.2195122,0,0,-1.2195122,67.679268,1015.8198)"
       style="fill:#2c3e50;fill-opacity:1">
      <path
         d="m 0,0 c 0,-1.902 -1.547,-3.446 -3.45,-3.446 l -22.085,0 c -1.903,0 -3.449,1.544 -3.449,3.446 l 0,14.729 5.374,0 c -0.463,-1.143 -0.726,-2.388 -0.726,-3.694 0,-5.426 4.416,-9.837 9.844,-9.837 5.428,0 9.843,4.411 9.843,9.837 0,1.306 -0.264,2.551 -0.725,3.694 L 0,14.729 0,0 Z m -19.629,14.729 c 1.15,1.594 3.022,2.64 5.137,2.64 2.115,0 3.985,-1.046 5.136,-2.64 0.751,-1.041 1.203,-2.313 1.203,-3.694 0,-3.492 -2.845,-6.33 -6.339,-6.33 -3.495,0 -6.337,2.838 -6.337,6.33 0,1.381 0.45,2.653 1.2,3.694 m 18.174,10.146 0.795,0.004 0,-0.793 0,-5.304 -6.081,-0.022 -0.022,6.098 5.308,0.017 z m -1.995,4.148 -22.085,0 c -3.835,0 -6.957,-3.119 -6.957,-6.953 l 0,-7.341 0,-14.729 c 0,-3.834 3.122,-6.952 6.957,-6.952 l 22.085,0 c 3.835,0 6.958,3.118 6.958,6.952 l 0,14.729 0,7.341 c 0,3.834 -3.123,6.953 -6.958,6.953"
         style="fill:#2c3e50;fill-opacity:1;fill-rule:nonzero;stroke:none"
         id="path3488"
         inkscape:connector-curvature="0" />
    </g>
  </g>
</svg>
