<?xml version="1.0" encoding="UTF-8" standalone="no"?>
<!-- Created with Inkscape (http://www.inkscape.org/) -->

<svg
   xmlns:dc="http://purl.org/dc/elements/1.1/"
   xmlns:cc="http://creativecommons.org/ns#"
   xmlns:rdf="http://www.w3.org/1999/02/22-rdf-syntax-ns#"
   xmlns:svg="http://www.w3.org/2000/svg"
   xmlns="http://www.w3.org/2000/svg"
   xmlns:sodipodi="http://sodipodi.sourceforge.net/DTD/sodipodi-0.dtd"
   xmlns:inkscape="http://www.inkscape.org/namespaces/inkscape"
   width="100"
   height="100"
   viewBox="0 0 99.999997 99.999997"
   id="svg2"
   version="1.1"
   inkscape:version="0.91 r13725"
   sodipodi:docname="twitter.svg"
   inkscape:export-filename="C:\Users\Matt\Documents\StudyBinder\LandingPage\StudyBinderLandingPage\www\img\twitter.png"
   inkscape:export-xdpi="90"
   inkscape:export-ydpi="90">
  <defs
     id="defs4" />
  <sodipodi:namedview
     id="base"
     pagecolor="#ffffff"
     bordercolor="#666666"
     borderopacity="1.0"
     inkscape:pageopacity="0.0"
     inkscape:pageshadow="2"
     inkscape:zoom="2.8"
     inkscape:cx="15.382891"
     inkscape:cy="54.733422"
     inkscape:document-units="px"
     inkscape:current-layer="layer1"
     showgrid="false"
     units="px"
     inkscape:window-width="1536"
     inkscape:window-height="801"
     inkscape:window-x="-8"
     inkscape:window-y="-8"
     inkscape:window-maximized="1" />
  <metadata
     id="metadata7">
    <rdf:RDF>
      <cc:Work
         rdf:about="">
        <dc:format>image/svg+xml</dc:format>
        <dc:type
           rdf:resource="http://purl.org/dc/dcmitype/StillImage" />
        <dc:title></dc:title>
      </cc:Work>
    </rdf:RDF>
  </metadata>
  <g
     inkscape:label="Layer 1"
     inkscape:groupmode="layer"
     id="layer1"
     transform="translate(0,-952.36223)">
    <g
       id="g3348"
       transform="translate(-314.46554,500.17922)"
       style="fill:#2c3e50;fill-opacity:1">
      <g
         style="fill:#2c3e50;fill-opacity:1"
         transform="matrix(1.2195419,0,0,-1.2183076,364.46676,454.71962)"
         id="g3376">
        <path
           inkscape:connector-curvature="0"
           id="path3378"
           style="fill:#2c3e50;fill-opacity:1;fill-rule:nonzero;stroke:none"
           d="m 0,0 c -21.505,0 -39,-17.495 -39,-39 0,-21.504 17.495,-38.999 39,-38.999 21.504,0 38.998,17.495 38.998,38.999 C 38.998,-17.495 21.504,0 0,0 m 0,-79.999 c -22.607,0 -41,18.392 -41,40.999 0,22.608 18.393,41 41,41 22.607,0 40.998,-18.392 40.998,-41 0,-22.607 -18.391,-40.999 -40.998,-40.999" />
      </g>
      <g
         style="fill:#2c3e50;fill-opacity:1"
         transform="matrix(1.25,0,0,-1.25,388.21442,489.41263)"
         id="g3380">
        <path
           inkscape:connector-curvature="0"
           id="path3382"
           style="fill:#2c3e50;fill-opacity:1;fill-rule:nonzero;stroke:none"
           d="m 0,0 c -1.325,-0.587 -2.749,-0.984 -4.242,-1.163 1.527,0.914 2.698,2.361 3.247,4.085 -1.428,-0.846 -3.006,-1.46 -4.692,-1.79 -1.343,1.435 -3.265,2.332 -5.39,2.332 -4.077,0 -7.384,-3.308 -7.384,-7.385 0,-0.58 0.063,-1.142 0.19,-1.683 -6.136,0.31 -11.578,3.247 -15.224,7.718 -0.636,-1.094 -0.998,-2.363 -0.998,-3.716 0,-2.56 1.303,-4.821 3.284,-6.148 -1.208,0.038 -2.349,0.373 -3.347,0.923 l 0,-0.09 c 0,-3.581 2.547,-6.566 5.927,-7.242 -0.619,-0.174 -1.27,-0.26 -1.946,-0.26 -0.476,0 -0.939,0.044 -1.389,0.13 0.94,-2.933 3.665,-5.069 6.898,-5.126 -2.528,-1.982 -5.714,-3.163 -9.172,-3.163 -0.596,0 -1.185,0.034 -1.762,0.102 3.268,-2.093 7.151,-3.316 11.32,-3.316 13.589,0 21.015,11.251 21.015,21.013 0,0.321 -0.006,0.641 -0.021,0.955 C -2.241,-2.781 -0.986,-1.48 0,0" />
      </g>
    </g>
  </g>
</svg>
